<svg xmlns="http://www.w3.org/2000/svg" xmlns:svg="http://www.w3.org/2000/svg" id="svg8" width="210mm" height="297mm" version="1.1" viewBox="0 0 210 297"><defs id="defs2"><filter style="color-interpolation-filters:sRGB" id="filter3801"><feGaussianBlur id="feGaussianBlur3793" result="fbSourceGraphic" stdDeviation="5"/><feGaussianBlur id="feGaussianBlur3795" in="SourceGraphic" result="result1" stdDeviation=".01"/><feComposite id="feComposite3797" in="fbSourceGraphic" in2="result1" k2=".5" k3=".5" operator="arithmetic" result="result2"/><feBlend id="feBlend3799" in2="fbSourceGraphic" mode="normal" result="result3"/></filter></defs><metadata id="metadata5"/><g id="layer1"><rect id="rect3791" width="512" height="512" x="56.367" y="92.501" rx="50" ry="50" style="fill:#000;stroke-width:.26458332;filter:url(#filter3801)"/><rect id="rect3713" width="512" height="512" x="53.721" y="88.797" style="fill:#a00;stroke-width:.26458332" rx="50" ry="50"/><rect style="fill:#ce0000;fill-opacity:.60591131;stroke-width:.28100395" id="rect3806" width="143.253" height="9.071" x="270.82" y="554.024"/><path id="path4638" d="m 494.14104,142.00092 -5.35736,41.28822 67.77684,374.38977 a 263.46279,229.17651 36.835702 0 1 4.98278,-0.4605 263.46279,229.17651 36.835702 0 1 7.77403,0.0471 z" style="fill:#ce0000;fill-opacity:.60591131;stroke-width:.59952348"/><path style="fill:#d40000;stroke-width:1.76103246" id="path3715-5-8" d="m 2138.1582,1411.377 a 995.76488,866.17897 0 0 0 -842.3984,854.3418 995.76488,866.17897 0 0 0 0.2988,5.0097 h 653.123 c 104.693,0 188.9766,-84.2836 188.9766,-188.9765 z" transform="scale(0.26458333)"/><ellipse style="fill:#d40000;stroke-width:.06901014" id="path3715-5" cx="492.586" cy="170.58" rx="39.021" ry="33.943"/><path style="fill:#ce0000;fill-opacity:.60591131;stroke-width:2.26591563" id="rect3806-2" d="M 464.66602,532.89453 542.01562,669.92969 1595.373,1648.873 a 995.76487,866.17896 0 0 1 14.0293,-12.6835 995.76487,866.17896 0 0 1 23.6231,-17.4727 z" transform="scale(0.26458333)"/><text xml:space="preserve" style="font-style:normal;font-weight:400;font-size:10.58333302px;line-height:1.25;font-family:sans-serif;letter-spacing:0;word-spacing:0;fill:#000;fill-opacity:1;stroke:none;stroke-width:.26458332" id="text3774" x="102.35" y="320.752"><tspan id="tspan3772" x="102.35" y="320.752" style="font-size:141.1111145px;fill:#fff;stroke-width:.26458332">MQTT</tspan></text><ellipse id="ellipse3768" cx="124.478" cy="148.563" rx="39.021" ry="33.943" style="fill:#d40000;stroke-width:.06901014"/><ellipse style="fill:#d40000;stroke-width:.06901014" id="ellipse3770" cx="234.995" cy="556.916" rx="39.021" ry="33.943"/><text id="text3778" x="194.576" y="474.738" style="font-style:normal;font-weight:400;font-size:10.58333302px;line-height:1.25;font-family:sans-serif;letter-spacing:0;word-spacing:0;fill:#000;fill-opacity:1;stroke:none;stroke-width:.26458332" xml:space="preserve"><tspan style="font-size:141.1111145px;fill:#fff;stroke-width:.26458332" id="tspan3776" x="194.576" y="474.738">net</tspan></text><rect id="rect4642" width="512" height="512" x="-672.183" y="97.35" rx="50" ry="50" style="fill:#a00;stroke-width:.26458332"/><path id="path4648" d="m -160.18302,381.97945 a 263.46279,229.17652 0 0 0 -222.88457,226.0446 263.46279,229.17652 0 0 0 0.0791,1.32549 h 172.80546 c 27.70002,0 50.00005,-22.30004 50.00005,-50.00004 z" style="fill:#d40000;stroke-width:.46593982"/><text id="text4656" x="-639.429" y="329.305" style="font-style:normal;font-weight:400;font-size:10.58333302px;line-height:1.25;font-family:sans-serif;letter-spacing:0;word-spacing:0;fill:#000;fill-opacity:1;stroke:none;stroke-width:.26458332" xml:space="preserve"><tspan style="font-weight:700;font-size:141.1111145px;fill:#fff;stroke-width:.26458332" id="tspan4654" x="-639.429" y="329.305">MQTT</tspan></text><text xml:space="preserve" style="font-style:normal;font-weight:400;font-size:10.58333302px;line-height:1.25;font-family:sans-serif;letter-spacing:0;word-spacing:0;fill:#000;fill-opacity:1;stroke:none;stroke-width:.26458332" id="text4664" x="-550.907" y="482.233"><tspan id="tspan4662" x="-550.907" y="482.233" style="font-weight:700;font-size:141.1111145px;fill:#fff;stroke-width:.26458332">net</tspan></text></g></svg>